# xmcd
#
# Track frame offsets:
#	150
#	18012
#	37508
#	62220
#	78635
#	97589
#	111464
#	129366
#	151934
#	170182
#	191440
#	213091
#	242657
#
# Disc length: 3652 seconds
#
# Revision: 0
# Processed by: cddbd v1.5PL3 Copyright (c) Steve Scherf et al.
# Submitted via: dBpowerAMP V4.0
#
DISCID=990e420d
DTITLE=Eve Selis - Heaven's Road
DYEAR=1900
DGENRE=Country
TTITLE0=Brave New World (Alternate Version)
TTITLE1=Mary Mary
TTITLE2=Back Down On My Knees
TTITLE3=Beyond the Moon (Alternate Version)
TTITLE4=Carry Me
TTITLE5=Heaven's Road
TTITLE6=Indiana Summer (Alternate Version)
TTITLE7=Into The Sun
TTITLE8=Out On A Wire
TTITLE9=Forgiven
TTITLE10=Nothing Without You
TTITLE11=Where Angels Walk
TTITLE12=DATA
EXTD=
EXTT0=
EXTT1=
EXTT2=
EXTT3=
EXTT4=
EXTT5=
EXTT6=
EXTT7=
EXTT8=
EXTT9=
EXTT10=
EXTT11=
EXTT12=
PLAYORDER=
